<?xml version="1.0" encoding="UTF-8"?>
<svg id="Layer_1" xmlns="http://www.w3.org/2000/svg" xmlns:xlink="http://www.w3.org/1999/xlink" version="1.1" viewBox="0 0 1920 574">
  <!-- Generator: Adobe Illustrator 30.3.0, SVG Export Plug-In . SVG Version: 2.1.3 Build 182)  -->
  <defs>
    <style>
      .st0 {
        fill: url(#Gradiente_sem_nome_13);
      }

      .st1 {
        fill: url(#Gradiente_sem_nome_133);
      }

      .st2 {
        fill: url(#Gradiente_sem_nome_131);
      }

      .st3 {
        fill: url(#Gradiente_sem_nome_136);
      }

      .st4 {
        fill: url(#Gradiente_sem_nome_137);
      }

      .st5 {
        fill: url(#Gradiente_sem_nome_132);
      }

      .st6 {
        fill: url(#Gradiente_sem_nome_135);
      }

      .st7 {
        fill: url(#Gradiente_sem_nome_134);
      }
    </style>
    <linearGradient id="Gradiente_sem_nome_13" data-name="Gradiente sem nome 13" x1="-.37" y1="276.96" x2="2011.26" y2="344.22" gradientUnits="userSpaceOnUse">
      <stop offset="0" stop-color="#b27450"/>
      <stop offset="1" stop-color="#e2aa80"/>
    </linearGradient>
    <linearGradient id="Gradiente_sem_nome_131" data-name="Gradiente sem nome 13" x1="-.24" y1="273.12" x2="2011.39" y2="340.38" xlink:href="#Gradiente_sem_nome_13"/>
    <linearGradient id="Gradiente_sem_nome_132" data-name="Gradiente sem nome 13" x1=".03" y1="265.03" x2="2011.66" y2="332.29" xlink:href="#Gradiente_sem_nome_13"/>
    <linearGradient id="Gradiente_sem_nome_133" data-name="Gradiente sem nome 13" x1=".23" y1="259.11" x2="2011.86" y2="326.37" xlink:href="#Gradiente_sem_nome_13"/>
    <linearGradient id="Gradiente_sem_nome_134" data-name="Gradiente sem nome 13" x1=".52" y1="250.26" x2="2012.15" y2="317.52" xlink:href="#Gradiente_sem_nome_13"/>
    <linearGradient id="Gradiente_sem_nome_135" data-name="Gradiente sem nome 13" x1=".87" y1="239.87" x2="2012.5" y2="307.13" xlink:href="#Gradiente_sem_nome_13"/>
    <linearGradient id="Gradiente_sem_nome_136" data-name="Gradiente sem nome 13" x1="1" y1="235.93" x2="2012.63" y2="303.19" xlink:href="#Gradiente_sem_nome_13"/>
    <linearGradient id="Gradiente_sem_nome_137" data-name="Gradiente sem nome 13" x1="1.12" y1="232.37" x2="2012.75" y2="299.63" xlink:href="#Gradiente_sem_nome_13"/>
  </defs>
  <path class="st0" d="M236.38,394.92l-86.86-257.53h-42.51l73.44,218.27c1.01,2.85,2.23,6.31,3.46,10.17,2.85,9.56,9.16,26.04,19.12,49.23,4.88,9.97,11.59,16.48,20.34,19.53,8.75,3.05,17.5,2.65,26.45-1.01,8.75-3.66,15.66-10.79,20.95-21.36,2.85-6.71,6.1-14.24,9.35-22.78,3.26-8.55,5.9-16.28,8.14-22.79,2.44-6.71,3.46-9.97,3.46-9.97l73.85-219.3h-42.52l-86.66,257.53Z"/>
  <polygon class="st2" points="394.08 436.62 435.58 436.62 435.58 137.38 394.29 137.38 394.08 436.62"/>
  <path class="st5" d="M593.46,394.92l-86.86-257.53h-42.52l73.44,218.27c1.02,2.85,2.24,6.31,3.46,10.17,2.85,9.56,9.16,26.04,19.13,49.23,4.88,9.97,11.59,16.48,20.34,19.53,8.75,3.05,17.5,2.65,26.45-1.01,8.75-3.66,15.67-10.79,20.95-21.36,2.85-6.71,6.11-14.24,9.36-22.78,3.25-8.55,5.9-16.28,8.14-22.79,2.44-6.71,3.46-9.97,3.46-9.97l73.85-219.3h-42.51l-86.67,257.53Z"/>
  <path class="st1" d="M791.04,396.34l.81-90.73,127.95-.2v-39.06h-127.95v-69.37c0-5.29,2.03-9.77,5.7-13.43,3.86-3.66,8.54-5.49,13.83-5.49,0,0,6.1-.2,18.1-.2h81.78c11.8-.2,18.1-.2,18.71-.2v-40.08h-118.59c-16.47,0-30.52,5.9-42.51,17.5-11.8,11.59-17.7,25.63-17.7,41.9v239.84h185.11v-39.67c-.2.2-.61.2-1.01.2l-144.23-1.02Z"/>
  <path class="st7" d="M1215.42,137.18h-41.5v42.92l.2,214.61c-15.06-10.58-26.85-26.04-35.19-45.97-8.55-20.14-15.87-41.91-22.38-65.71-4.07-14.24-8.34-28.48-13.02-42.51-4.68-13.83-10.17-27.05-16.47-39.46-6.31-12.41-14.04-23.39-22.99-32.95-8.95-9.56-19.73-17.09-32.34-22.79-12.61-5.5-27.67-8.14-45.16-8.14h-21.56l.21,41.5-.21,214.61-.2,42.92h41.5l.2-42.92v-214.61c14.85,8.75,26.85,20.14,36.01,33.76,9.15,13.64,16.47,28.69,21.97,45.17,5.7,16.47,10.58,33.36,14.85,50.45,5.49,22.18,12,42.92,19.53,62.45,7.73,19.33,18.92,34.99,33.76,46.99,14.86,12.2,35.6,18.31,62.25,18.71h7.93c3.66.2,7.93.2,12.82,0v-41.5l-.2-214.61v-42.92Z"/>
  <polygon class="st6" points="1243.96 137.38 1243.96 178.07 1341.8 177.86 1342 177.86 1341.59 436.62 1381.27 436.62 1382.28 177.86 1479.31 177.66 1479.12 137.38 1243.96 137.38"/>
  <polygon class="st3" points="1507.64 436.62 1549.14 436.62 1549.14 137.38 1507.84 137.38 1507.64 436.62"/>
  <path class="st4" d="M1797.14,187.02c-10.38-14.45-24.42-26.45-42.11-35.6-17.7-9.35-37.43-14.04-59.2-14.04-20.14,0-39.06,4.88-57.17,14.24-17.89,9.36-32.75,21.76-43.93,37.02-11.4,15.06-17.09,31.33-17.09,48.62v199.56h40.48v-56.14c.2-14.85.2-28.48.2-41.09v-22.58h14.24c9.56-.2,21.97-.2,37.23,0,14.44-.2,29.5,1.43,45.36,4.68,16.07,3.26,29.7,10.17,40.89,20.76,11.39,10.58,17.09,26.85,17.49,48.41v45.97h39.46v-203.02c-.2-16.68-5.5-32.14-15.86-46.78ZM1736.91,282.83c-14.64-4.07-32.34-5.9-53.09-5.9h-65.5c0-19.53,0-29.91.2-31.33,1.84-19.33,10.17-35.39,24.82-48.21,14.44-13.02,32.14-19.33,52.48-19.33s36.41,5.9,51.06,17.49c14.44,11.6,22.99,26.45,25.63,44.55.2,2.65.41,9.97.61,22.18.2,12,.2,26.24.2,42.11-9.56-10.37-21.77-17.7-36.42-21.56Z"/>
</svg>