<?xml version="1.0" encoding="UTF-8"?>
<svg id="Camada_1" xmlns="http://www.w3.org/2000/svg" xmlns:xlink="http://www.w3.org/1999/xlink" version="1.1" viewBox="0 0 1080 1080">
  <!-- Generator: Adobe Illustrator 30.3.0, SVG Export Plug-In . SVG Version: 2.1.3 Build 182)  -->
  <defs>
    <style>
      .st0 {
        fill: url(#Gradiente_sem_nome_11);
      }

      .st1 {
        fill: url(#Gradiente_sem_nome_2);
      }

      .st2 {
        fill: #fff;
      }
    </style>
    <linearGradient id="Gradiente_sem_nome_11" data-name="Gradiente sem nome 11" x1="55.02" y1="485.04" x2="965.82" y2="604.18" gradientUnits="userSpaceOnUse">
      <stop offset="0" stop-color="#b27450"/>
      <stop offset="1" stop-color="#e2aa80"/>
    </linearGradient>
    <linearGradient id="Gradiente_sem_nome_2" data-name="Gradiente sem nome 2" x1="57.2" y1="468.37" x2="968" y2="587.5" gradientUnits="userSpaceOnUse">
      <stop offset="0" stop-color="#b27450"/>
      <stop offset="1" stop-color="#e2aa80"/>
    </linearGradient>
  </defs>
  <rect class="st2" x="0" y="0" width="1080" height="1080"/>
  <g>
    <path class="st0" d="M396.17,675.65l-109.19-323.73h-53.44l92.32,274.38c1.27,3.58,2.81,7.93,4.34,12.79,3.58,12.01,11.51,32.73,24.04,61.88,6.14,12.53,14.57,20.72,25.57,24.55,11,3.84,22,3.33,33.24-1.27,11-4.61,19.69-13.56,26.34-26.85,3.58-8.44,7.67-17.9,11.76-28.64,4.09-10.75,7.42-20.46,10.23-28.64,3.07-8.44,4.35-12.53,4.35-12.53l92.83-275.67h-53.45l-108.94,323.73Z"/>
    <path class="st1" d="M683.83,404.35l109.19,323.73h53.44l-92.32-274.38c-1.27-3.58-2.81-7.93-4.34-12.79-3.58-12.01-11.51-32.73-24.04-61.88-6.14-12.53-14.57-20.72-25.57-24.55-11-3.84-22-3.33-33.24,1.27-11,4.61-19.69,13.56-26.34,26.85-3.58,8.44-7.67,17.9-11.76,28.64-4.09,10.75-7.42,20.46-10.23,28.64-3.07,8.44-4.35,12.53-4.35,12.53l-92.83,275.67h53.45l108.94-323.73Z"/>
  </g>
</svg>